<svg width="32" height="32" viewBox="0 0 32 32" fill="none" xmlns="http://www.w3.org/2000/svg">
  <rect width="32" height="32" rx="6" fill="#137fec"/>
  <path d="M6 10C6 10 8 8 12 8C16 8 18 10 18 10" stroke="white" stroke-width="2" stroke-linecap="round"/>
  <path d="M5 15C5 15 7 13 11 13C15 13 17 15 17 15" stroke="white" stroke-width="2" stroke-linecap="round"/>
  <path d="M7 20C7 20 9 18 13 18C17 18 19 20 19 20" stroke="white" stroke-width="2" stroke-linecap="round"/>
  <rect x="18" y="8" width="8" height="12" rx="1" stroke="white" stroke-width="1.5" fill="none"/>
  <line x1="20" y1="11" x2="24" y2="11" stroke="white" stroke-width="1.5" stroke-linecap="round"/>
  <line x1="20" y1="14" x2="24" y2="14" stroke="white" stroke-width="1.5" stroke-linecap="round"/>
  <line x1="20" y1="17" x2="22" y2="17" stroke="white" stroke-width="1.5" stroke-linecap="round"/>
</svg>
