<svg width="48" height="48" viewBox="0 0 48 48" fill="none" xmlns="http://www.w3.org/2000/svg">
  <!-- Wind/Breeze effect with modern design -->
  <path d="M8 16C8 16 12 12 20 12C28 12 32 16 32 16" stroke="currentColor" stroke-width="3" stroke-linecap="round"/>
  <path d="M6 24C6 24 10 20 18 20C26 20 30 24 30 24" stroke="currentColor" stroke-width="3" stroke-linecap="round"/>
  <path d="M10 32C10 32 14 28 22 28C30 28 34 32 34 32" stroke="currentColor" stroke-width="3" stroke-linecap="round"/>
  <!-- Document/Blog icon -->
  <rect x="28" y="8" width="14" height="18" rx="2" stroke="currentColor" stroke-width="2.5" fill="none"/>
  <line x1="31" y1="13" x2="39" y2="13" stroke="currentColor" stroke-width="2" stroke-linecap="round"/>
  <line x1="31" y1="17" x2="39" y2="17" stroke="currentColor" stroke-width="2" stroke-linecap="round"/>
  <line x1="31" y1="21" x2="36" y2="21" stroke="currentColor" stroke-width="2" stroke-linecap="round"/>
</svg>
